<?xml version="1.0" standalone="no"?>
<!DOCTYPE svg PUBLIC "-//W3C//DTD SVG 20010904//EN"
 "http://www.w3.org/TR/2001/REC-SVG-20010904/DTD/svg10.dtd">
<svg version="1.0" xmlns="http://www.w3.org/2000/svg"
 width="1024.000000pt" height="1024.000000pt" fill="#FFFFFF" viewBox="0 0 1024.000000 1024.000000"
 preserveAspectRatio="xMidYMid meet">

<g transform="translate(0.000000,1024.000000) scale(0.100000,-0.100000)"
fill="#FFFFFF" stroke="none">
<path d="M4900 8696 c-77 -14 -90 -21 -90 -47 0 -18 -8 -19 -114 -19 -127 0
-243 -18 -305 -49 l-42 -19 -25 23 c-57 52 -75 52 -281 -10 -208 -62 -261 -81
-376 -137 -43 -21 -80 -38 -83 -38 -2 0 -37 -15 -77 -34 -40 -19 -121 -57
-180 -85 -60 -28 -120 -59 -135 -69 -15 -11 -58 -36 -97 -57 -38 -21 -84 -49
-101 -62 -17 -13 -34 -23 -38 -23 -11 0 -189 -112 -262 -166 -39 -29 -103 -83
-143 -121 -57 -55 -69 -72 -65 -90 4 -13 10 -23 15 -23 21 0 6 -23 -43 -68
-188 -169 -357 -351 -393 -422 -10 -19 -21 -37 -24 -40 -3 -3 -15 -21 -25 -40
-11 -19 -34 -53 -52 -75 -29 -37 -76 -105 -132 -194 -66 -103 -187 -410 -232
-591 -11 -41 -28 -109 -39 -150 -20 -79 -69 -343 -96 -520 -9 -58 -23 -141
-31 -185 -17 -90 -13 -239 9 -283 13 -29 45 -41 57 -21 5 7 11 -18 14 -57 4
-38 13 -127 21 -199 8 -71 17 -159 21 -195 13 -146 114 -533 194 -745 21 -55
57 -152 80 -215 79 -219 212 -453 391 -685 25 -33 70 -96 99 -140 101 -153
230 -293 375 -409 135 -108 294 -229 345 -262 25 -16 56 -41 68 -56 13 -15 37
-30 52 -33 15 -3 36 -15 45 -25 10 -11 32 -24 51 -30 18 -6 36 -19 39 -29 14
-45 92 -82 197 -95 26 -3 66 -14 90 -25 158 -71 237 -102 273 -107 22 -2 67
-9 100 -15 33 -5 90 -14 127 -19 37 -5 84 -19 105 -30 28 -15 55 -20 103 -20
36 1 115 -1 175 -4 61 -4 147 -8 191 -10 88 -4 317 8 484 24 58 6 152 15 210
21 58 5 175 11 260 13 156 4 284 22 446 66 69 19 324 124 507 209 81 38 88 44
85 68 -6 47 -28 50 -125 19 -48 -16 -155 -60 -238 -96 -165 -74 -233 -98 -375
-132 -87 -21 -120 -23 -375 -23 -154 0 -454 -7 -667 -15 -405 -15 -407 -14
-633 26 -133 24 -341 80 -505 137 -85 30 -197 65 -247 78 -84 21 -98 28 -146
74 -30 29 -109 85 -176 126 -327 197 -644 487 -795 724 -22 35 -71 109 -107
162 -36 54 -90 134 -118 178 -54 81 -161 294 -199 395 -46 121 -172 520 -191
605 -25 113 -61 377 -61 459 -1 33 -8 79 -16 101 -8 22 -20 55 -25 73 -7 21
-15 32 -24 29 -19 -8 -26 55 -24 218 2 182 6 215 26 208 13 -5 15 -1 8 23 -21
70 -6 235 38 419 33 142 115 399 137 430 4 6 15 37 24 70 52 177 152 394 230
499 13 17 43 65 66 106 36 62 180 272 200 290 3 3 18 23 33 46 26 39 236 257
267 279 50 34 79 52 110 66 19 9 75 45 123 80 106 77 188 129 204 129 6 0 82
36 167 80 152 78 221 107 434 186 56 20 102 41 102 45 0 16 -37 19 -113 9 -77
-11 -115 -7 -63 6 14 3 26 10 26 14 0 10 46 27 205 75 66 20 136 42 155 47 19
6 49 17 67 25 17 7 35 13 41 13 5 0 43 11 83 24 41 13 106 27 144 31 39 4 113
13 165 20 52 7 151 18 220 25 69 6 154 16 188 21 122 19 531 10 737 -16 61 -8
139 -17 175 -20 147 -14 509 -109 670 -176 312 -131 393 -171 594 -291 353
-211 582 -381 723 -535 110 -122 264 -307 351 -422 40 -53 93 -123 119 -156
63 -79 142 -207 174 -280 27 -61 125 -362 174 -535 15 -52 34 -116 42 -142 8
-26 16 -69 19 -95 11 -129 16 -160 29 -188 19 -44 25 -269 10 -415 -8 -79 -23
-156 -40 -207 -26 -78 -27 -84 -11 -108 9 -14 21 -25 26 -25 13 0 13 -57 0
-65 -5 -3 -9 -16 -9 -28 1 -23 -19 -131 -29 -157 -3 -8 -6 -17 -7 -20 -1 -3
-10 -23 -19 -44 -10 -22 -24 -68 -31 -102 -30 -144 -143 -441 -206 -545 -16
-25 -29 -49 -29 -53 0 -4 -8 -19 -19 -34 -10 -15 -54 -88 -96 -162 -43 -74
-82 -137 -85 -140 -4 -3 -27 -33 -51 -67 -109 -153 -197 -260 -321 -389 -73
-76 -151 -161 -173 -189 -60 -77 -162 -180 -240 -243 -102 -82 -107 -87 -114
-124 -18 -82 40 -105 124 -50 122 79 585 510 585 544 0 7 5 6 14 -1 11 -10 23
-8 53 8 40 21 50 31 120 123 25 32 51 58 59 58 13 0 45 60 89 167 9 21 21 43
28 48 7 6 30 46 52 90 23 44 62 121 87 170 65 124 197 402 214 449 8 21 11 42
8 47 -6 10 6 54 82 294 29 94 55 195 58 225 2 30 14 97 25 149 12 51 24 128
27 170 5 85 5 439 -1 486 -2 17 -9 89 -15 160 -12 144 -13 154 -30 240 -11 59
-16 75 -70 250 -15 50 -37 124 -49 165 -12 41 -29 89 -36 105 -8 17 -24 55
-35 85 -12 30 -32 75 -45 100 -50 93 -116 243 -124 281 -15 65 -128 243 -283
445 -278 362 -603 632 -1068 886 -185 102 -779 333 -960 374 -30 7 -80 19
-110 28 -66 19 -234 50 -425 78 -173 26 -619 35 -725 14z m1045 -166 l20 -9
-20 0 c-11 0 -29 4 -40 9 l-20 9 20 0 c11 0 29 -4 40 -9z m577 -161 c147 -52
624 -276 759 -356 262 -155 592 -465 804 -756 28 -37 70 -96 95 -130 62 -85
82 -117 72 -117 -5 0 -14 10 -19 23 -6 12 -41 58 -78 102 -36 44 -94 114 -128
154 -144 174 -294 330 -397 415 -271 223 -641 435 -1135 651 -71 32 -132 59
-134 61 -13 12 32 -1 161 -47z"/>
<path d="M5520 7790 c-410 -24 -740 -118 -1130 -322 -266 -140 -483 -282 -690
-452 -133 -110 -512 -496 -544 -554 -5 -10 -20 -30 -33 -46 -36 -43 -85 -145
-81 -169 2 -16 10 -22 28 -22 19 0 43 24 115 116 117 152 132 169 363 402 167
170 296 287 316 287 3 0 17 11 32 25 89 83 345 241 583 360 200 99 518 218
657 244 200 38 312 46 622 44 317 -2 326 -1 304 34 -4 7 -30 17 -57 23 -54 12
-308 41 -340 38 -11 -1 -76 -4 -145 -8z"/>
<path d="M6248 7673 c7 -3 16 -2 19 1 4 3 -2 6 -13 5 -11 0 -14 -3 -6 -6z"/>
<path d="M4880 7390 c-8 -5 -12 -11 -9 -14 3 -3 14 1 25 9 21 16 8 20 -16 5z"/>
<path d="M4655 7334 c-161 -39 -494 -245 -740 -458 -38 -34 -72 -63 -75 -66
-3 -3 -30 -26 -60 -52 -174 -147 -411 -414 -521 -588 -76 -118 -182 -303 -220
-380 -33 -69 -94 -256 -108 -334 -11 -59 -17 -74 -26 -65 -2 3 -7 77 -11 165
-6 166 -16 217 -42 212 -27 -5 -41 -76 -48 -241 -15 -381 52 -648 284 -1127
101 -209 198 -351 372 -544 133 -149 474 -406 666 -504 146 -74 392 -157 558
-188 146 -27 224 -30 251 -10 18 13 18 14 -1 38 -10 14 -25 23 -33 20 -8 -3
-12 1 -9 9 10 29 28 15 104 -78 85 -104 215 -254 252 -291 12 -12 32 -22 45
-22 55 0 63 57 15 107 l-32 33 32 42 c30 42 97 170 142 273 26 59 32 72 92
185 25 47 71 135 103 195 108 209 215 393 215 374 0 -4 -14 -39 -31 -79 -32
-77 -36 -133 -8 -138 11 -2 23 13 39 50 26 63 36 84 89 206 23 50 41 97 41
103 0 5 9 29 19 53 11 23 30 67 41 97 30 75 130 259 141 259 18 0 8 -33 -52
-181 -106 -257 -48 -192 108 122 232 467 341 719 363 840 9 51 27 89 99 212
27 45 68 120 93 167 44 85 52 98 113 195 17 28 41 73 53 100 33 79 161 327
179 347 8 9 20 16 25 15 5 -1 15 7 21 18 7 10 34 46 61 79 45 56 48 62 42 104
-6 42 -4 46 44 96 27 29 47 56 43 59 -12 12 -33 7 -33 -8 0 -19 -32 -35 -57
-29 -14 4 -37 -7 -72 -34 -29 -21 -96 -59 -149 -82 -134 -61 -690 -335 -842
-416 -170 -90 -237 -124 -247 -124 -5 0 -26 -12 -48 -27 -22 -15 -53 -35 -70
-44 -16 -8 -75 -39 -130 -69 -55 -29 -174 -93 -265 -143 -256 -139 -273 -148
-470 -252 -102 -53 -189 -100 -195 -104 -5 -5 -41 -25 -80 -46 -183 -99 -276
-151 -345 -190 -132 -77 -231 -120 -240 -105 -4 7 -13 9 -20 5 -9 -6 -9 -10 1
-17 12 -7 11 -11 -1 -19 -39 -25 -201 -114 -353 -193 l-169 -88 -31 30 c-98
95 -120 112 -137 112 -13 0 -22 -9 -26 -25 -6 -24 18 -67 64 -114 7 -8 20 -25
29 -38 15 -23 14 -25 -18 -54 -18 -16 -40 -27 -47 -24 -33 12 -56 -47 -33 -84
11 -17 54 -8 89 20 14 10 28 19 32 19 5 0 53 -51 107 -112 97 -112 164 -184
338 -368 130 -137 223 -235 296 -315 35 -38 79 -86 97 -105 19 -19 66 -70 105
-112 39 -43 77 -78 84 -78 20 0 15 39 -9 73 -19 27 -13 24 31 -16 30 -26 83
-80 120 -120 36 -39 99 -104 140 -143 45 -43 71 -75 67 -82 -5 -9 -15 -6 -34
7 -25 19 -155 50 -357 86 -314 57 -642 257 -918 559 -162 177 -235 283 -374
546 -44 84 -141 318 -157 380 -24 95 -39 283 -34 448 4 136 9 168 32 237 14
44 38 94 52 110 l25 30 -6 -40 c-4 -22 -9 -52 -12 -67 -4 -22 -2 -28 11 -28
20 0 35 35 47 115 13 81 23 111 81 240 83 185 252 479 311 540 7 7 32 37 56
66 61 74 168 179 281 274 52 44 104 88 115 98 57 52 262 199 345 249 156 91
341 178 440 205 56 15 97 38 83 45 -20 11 -173 6 -228 -8z m2320 -969 c-22
-19 -71 -51 -110 -71 -62 -33 -181 -109 -195 -125 -3 -3 -77 -54 -165 -114
-330 -225 -690 -479 -762 -538 -28 -23 -95 -78 -149 -122 -204 -169 -238 -190
-344 -215 -30 -7 -99 -28 -153 -47 -150 -52 -289 -81 -432 -92 -148 -11 -212
-30 -221 -67 -3 -12 -3 -28 1 -33 8 -14 63 -14 101 -1 46 16 124 28 124 20 0
-4 -21 -11 -47 -15 -26 -4 -41 -10 -35 -14 7 -4 -11 -15 -44 -25 -30 -10 -104
-39 -162 -66 -94 -42 -113 -47 -157 -43 -41 4 -54 1 -72 -17 -40 -37 -31 -79
30 -152 30 -35 105 -133 167 -218 102 -139 144 -193 252 -323 17 -21 48 -63
69 -93 21 -29 78 -107 126 -171 49 -65 106 -145 127 -178 73 -112 179 -250
236 -308 56 -56 58 -60 64 -121 3 -35 9 -71 12 -80 12 -30 -9 -16 -95 68 -47
46 -106 101 -130 122 -25 21 -61 57 -82 79 -21 22 -109 112 -196 200 -87 88
-194 203 -237 255 -44 52 -98 115 -122 140 -23 25 -70 77 -105 116 -83 92
-222 242 -296 320 -32 34 -70 74 -84 90 -14 16 -68 60 -118 99 -51 38 -95 73
-97 77 -6 9 85 63 246 146 74 38 169 87 210 109 283 152 496 267 560 303 41
23 134 74 205 112 72 39 184 100 250 136 66 36 181 97 255 135 74 38 160 86
190 105 73 46 302 172 470 257 74 38 153 81 175 96 22 14 56 34 75 43 19 9 27
11 16 4 -10 -7 -41 -30 -70 -50 -28 -20 -109 -73 -181 -117 -149 -91 -185
-122 -165 -146 19 -23 31 -19 116 36 44 29 98 60 122 70 43 19 95 48 225 128
37 23 154 86 260 140 106 54 232 119 280 145 48 25 91 46 95 46 4 0 -11 -16
-33 -35z m-26 -157 c-7 -13 -44 -75 -82 -138 -39 -63 -104 -176 -144 -250 -41
-74 -85 -151 -97 -170 -56 -86 -191 -349 -354 -690 -25 -52 -59 -117 -75 -145
-32 -54 -201 -355 -250 -445 -34 -63 -118 -207 -250 -425 -50 -82 -109 -186
-132 -230 -23 -44 -71 -134 -106 -200 -35 -66 -75 -144 -88 -173 -14 -29 -28
-52 -33 -52 -14 0 -10 24 26 150 9 30 21 89 27 130 6 41 21 99 34 130 37 88
90 211 115 265 13 28 34 79 47 115 13 36 30 79 37 95 16 35 49 119 105 265 36
95 81 206 116 285 8 17 41 98 74 180 32 83 75 179 95 215 20 36 48 88 62 115
28 56 257 368 293 400 19 16 25 17 42 6 24 -14 42 -4 65 40 29 57 7 80 -35 35
-18 -19 -29 -23 -64 -19 -38 5 -44 2 -54 -18 -6 -13 -32 -50 -59 -83 -293
-353 -295 -357 -423 -662 -43 -104 -94 -227 -114 -274 -19 -47 -54 -134 -77
-195 -55 -143 -62 -159 -126 -293 -30 -61 -63 -133 -73 -160 -11 -26 -31 -72
-45 -102 -30 -64 -28 -75 -27 165 2 197 5 246 31 490 33 311 50 499 50 540 0
37 5 45 70 105 39 35 87 75 108 88 20 14 39 28 42 31 10 13 86 69 108 80 17 9
27 9 37 1 7 -6 15 -7 17 -2 1 5 59 47 128 93 69 46 159 118 201 159 74 73 135
118 292 216 69 43 173 117 261 185 27 21 28 22 18 3 -6 -12 -18 -26 -26 -34
-22 -17 -132 -180 -140 -206 -13 -41 31 -21 71 32 37 48 123 153 152 184 8 8
45 54 83 102 70 88 89 107 67 66z m-559 -23 c0 -2 -10 -10 -22 -16 -21 -11
-22 -11 -9 4 13 16 31 23 31 12z m-1094 -1862 c-4 -412 -11 -761 -16 -778 -4
-16 -11 -47 -15 -68 l-6 -38 -56 58 c-56 58 -84 95 -311 403 -67 91 -174 234
-239 318 -65 84 -149 197 -188 251 -38 54 -88 122 -111 152 -23 30 -44 61 -47
70 -10 30 193 114 683 282 118 41 229 79 245 85 17 6 38 11 49 11 18 1 18 -20
12 -746z m-1526 129 c79 -82 126 -135 162 -184 22 -29 25 -37 13 -42 -8 -3
-15 -2 -15 2 0 4 -15 25 -34 47 -19 22 -32 44 -29 50 4 5 2 7 -2 2 -8 -7 -55
30 -55 44 0 3 -18 26 -41 50 -49 52 -83 99 -72 99 4 0 37 -30 73 -68z m260
-314 c0 -4 -13 6 -30 24 -16 17 -30 33 -30 36 0 3 14 -7 30 -23 17 -16 30 -32
30 -37z m170 -173 c13 -14 21 -25 18 -25 -2 0 -15 11 -28 25 -13 14 -21 25
-18 25 2 0 15 -11 28 -25z m70 -70 c0 -8 3 -15 8 -15 4 0 16 -13 26 -28 16
-22 13 -21 -18 8 -21 19 -42 43 -48 53 -8 16 -7 17 11 7 12 -6 21 -17 21 -25z
m84 -91 c5 -14 4 -15 -9 -4 -17 14 -19 20 -6 20 5 0 12 -7 15 -16z"/>
<path d="M5110 5273 c-179 -65 -373 -153 -386 -175 -19 -29 -10 -49 12 -29 5
4 32 14 59 20 28 7 106 35 175 63 169 68 234 88 276 81 21 -3 40 -1 50 8 14
12 14 14 -2 26 -18 13 -153 17 -184 6z"/>
<path d="M5860 5273 c-33 -9 -105 -135 -171 -301 -52 -129 -54 -136 -94 -302
-48 -200 -9 -170 65 50 79 236 153 400 222 497 38 52 30 71 -22 56z"/>
<path d="M2700 7313 c-43 -16 -118 -106 -284 -343 -188 -269 -369 -645 -434
-902 -53 -206 -62 -246 -62 -271 0 -13 -8 -42 -17 -63 -24 -56 -25 -230 -1
-266 9 -14 20 -54 23 -89 14 -133 36 -171 84 -146 21 12 22 17 26 208 4 157 8
202 22 230 9 18 20 69 24 114 8 95 40 249 69 334 81 243 230 535 396 778 57
84 113 176 124 204 12 29 34 70 50 93 40 56 49 101 22 115 -12 6 -22 11 -24
10 -2 0 -10 -3 -18 -6z"/>
<path d="M7554 7114 c-5 -20 19 -77 118 -272 161 -319 219 -498 253 -789 8
-67 18 -130 23 -140 11 -22 36 -122 35 -143 -1 -8 5 -40 12 -70 8 -30 15 -96
18 -146 4 -103 28 -167 66 -172 51 -8 74 72 51 174 -5 23 -12 61 -14 85 -42
372 -63 486 -146 766 -60 207 -136 387 -235 558 -87 151 -165 215 -181 149z"/>
<path d="M4608 5701 c-126 -63 -428 -381 -428 -451 0 -14 -4 -30 -9 -35 -4 -6
-12 -23 -15 -40 l-8 -30 25 36 c13 19 27 47 31 62 6 24 81 106 197 213 24 23
84 83 134 133 55 57 100 95 117 98 17 3 25 10 21 19 -7 18 -20 17 -65 -5z"/>
<path d="M2751 4606 c-20 -24 -3 -79 75 -234 83 -166 116 -217 263 -398 94
-116 340 -373 431 -449 19 -17 60 -51 90 -76 147 -124 364 -247 472 -269 70
-14 100 -7 96 23 -2 17 -35 38 -143 92 -77 38 -165 86 -195 106 -58 38 -229
176 -294 238 -47 45 -199 211 -246 270 -19 25 -40 49 -45 55 -104 112 -193
236 -284 393 -29 51 -49 75 -66 79 -19 5 -35 26 -66 88 -49 97 -64 111 -88 82z"/>
<path d="M7130 2310 c-8 -5 -36 -8 -62 -8 -34 1 -62 -7 -105 -29 -242 -126
-275 -146 -285 -168 -6 -13 -8 -31 -4 -41 11 -28 70 -10 185 57 211 124 207
122 263 115 40 -6 54 -3 69 10 19 17 25 49 12 57 -21 11 -60 15 -73 7z"/>
</g>
</svg>
