<?xml version="1.0" encoding="UTF-8"?>
<svg xmlns="http://www.w3.org/2000/svg" xmlns:xlink="http://www.w3.org/1999/xlink" width="128px" height="128px" viewBox="0 0 128 128" version="1.1">
<g id="surface1">
<path style=" stroke:none;fill-rule:nonzero;fill:rgb(100%,100%,100%);fill-opacity:1;" d="M 61.25 19.300781 C 60.289062 19.476562 60.125 19.5625 60.125 19.886719 C 60.125 20.113281 60.023438 20.125 58.699219 20.125 C 57.113281 20.125 55.664062 20.351562 54.886719 20.738281 L 54.363281 20.976562 L 54.050781 20.6875 C 53.335938 20.039062 53.113281 20.039062 50.539062 20.8125 C 47.9375 21.585938 47.273438 21.824219 45.835938 22.523438 C 45.300781 22.789062 44.835938 23 44.800781 23 C 44.773438 23 44.335938 23.1875 43.835938 23.425781 C 43.335938 23.664062 42.324219 24.136719 41.585938 24.488281 C 40.835938 24.835938 40.085938 25.226562 39.898438 25.351562 C 39.710938 25.488281 39.175781 25.800781 38.6875 26.0625 C 38.210938 26.324219 37.636719 26.675781 37.425781 26.835938 C 37.210938 27 37 27.125 36.949219 27.125 C 36.8125 27.125 34.585938 28.523438 33.675781 29.199219 C 33.1875 29.5625 32.386719 30.238281 31.886719 30.710938 C 31.175781 31.398438 31.023438 31.613281 31.074219 31.835938 C 31.125 32 31.199219 32.125 31.261719 32.125 C 31.523438 32.125 31.335938 32.414062 30.726562 32.976562 C 28.375 35.085938 26.261719 37.363281 25.8125 38.25 C 25.6875 38.488281 25.550781 38.710938 25.511719 38.75 C 25.476562 38.789062 25.324219 39.011719 25.199219 39.25 C 25.0625 39.488281 24.773438 39.914062 24.550781 40.1875 C 24.1875 40.648438 23.601562 41.5 22.898438 42.613281 C 22.074219 43.898438 20.5625 47.738281 20 50 C 19.863281 50.511719 19.648438 51.363281 19.511719 51.875 C 19.261719 52.863281 18.648438 56.164062 18.3125 58.375 C 18.199219 59.101562 18.023438 60.136719 17.925781 60.6875 C 17.710938 61.8125 17.761719 63.675781 18.039062 64.226562 C 18.199219 64.585938 18.601562 64.738281 18.75 64.488281 C 18.8125 64.398438 18.886719 64.710938 18.925781 65.199219 C 18.976562 65.675781 19.085938 66.789062 19.1875 67.6875 C 19.289062 68.574219 19.398438 69.675781 19.449219 70.125 C 19.613281 71.949219 20.875 76.789062 21.875 79.4375 C 22.136719 80.125 22.585938 81.335938 22.875 82.125 C 23.863281 84.863281 25.523438 87.789062 27.761719 90.6875 C 28.074219 91.101562 28.636719 91.886719 29 92.4375 C 30.261719 94.351562 31.875 96.101562 33.6875 97.550781 C 35.375 98.898438 37.363281 100.414062 38 100.824219 C 38.3125 101.023438 38.699219 101.335938 38.851562 101.523438 C 39.011719 101.710938 39.3125 101.898438 39.5 101.9375 C 39.6875 101.976562 39.949219 102.125 40.0625 102.25 C 40.1875 102.386719 40.460938 102.550781 40.699219 102.625 C 40.925781 102.699219 41.148438 102.863281 41.1875 102.988281 C 41.363281 103.550781 42.335938 104.011719 43.648438 104.175781 C 43.976562 104.210938 44.476562 104.351562 44.773438 104.488281 C 46.75 105.375 47.738281 105.761719 48.1875 105.824219 C 48.460938 105.851562 49.023438 105.9375 49.4375 106.011719 C 49.851562 106.074219 50.5625 106.1875 51.023438 106.25 C 51.488281 106.3125 52.074219 106.488281 52.335938 106.625 C 52.6875 106.8125 53.023438 106.875 53.625 106.875 C 54.074219 106.863281 55.0625 106.886719 55.8125 106.925781 C 56.574219 106.976562 57.648438 107.023438 58.199219 107.050781 C 59.300781 107.101562 62.164062 106.949219 64.25 106.75 C 64.976562 106.675781 66.148438 106.5625 66.875 106.488281 C 67.601562 106.425781 69.0625 106.351562 70.125 106.324219 C 72.074219 106.273438 73.675781 106.050781 75.699219 105.5 C 76.5625 105.261719 79.75 103.949219 82.039062 102.886719 C 83.050781 102.414062 83.136719 102.335938 83.101562 102.039062 C 83.023438 101.449219 82.75 101.414062 81.539062 101.800781 C 80.9375 102 79.601562 102.550781 78.5625 103 C 76.5 103.925781 75.648438 104.226562 73.875 104.648438 C 72.789062 104.914062 72.375 104.9375 69.1875 104.9375 C 67.261719 104.9375 63.511719 105.023438 60.851562 105.125 C 55.789062 105.3125 55.761719 105.300781 52.9375 104.800781 C 51.273438 104.5 48.675781 103.800781 46.625 103.085938 C 45.5625 102.710938 44.164062 102.273438 43.539062 102.113281 C 42.488281 101.851562 42.3125 101.761719 41.710938 101.1875 C 41.335938 100.824219 40.351562 100.125 39.511719 99.613281 C 35.425781 97.148438 31.460938 93.523438 29.574219 90.5625 C 29.300781 90.125 28.6875 89.199219 28.238281 88.539062 C 27.789062 87.863281 27.113281 86.863281 26.761719 86.3125 C 26.085938 85.300781 24.75 82.636719 24.273438 81.375 C 23.699219 79.863281 22.125 74.875 21.886719 73.8125 C 21.574219 72.398438 21.125 69.101562 21.125 68.074219 C 21.113281 67.664062 21.023438 67.085938 20.925781 66.8125 C 20.824219 66.539062 20.675781 66.125 20.613281 65.898438 C 20.523438 65.636719 20.425781 65.5 20.3125 65.539062 C 20.074219 65.636719 19.988281 64.851562 20.011719 62.8125 C 20.039062 60.539062 20.085938 60.125 20.335938 60.210938 C 20.5 60.273438 20.523438 60.226562 20.4375 59.925781 C 20.175781 59.050781 20.363281 56.988281 20.914062 54.6875 C 21.324219 52.914062 22.351562 49.699219 22.625 49.3125 C 22.675781 49.238281 22.8125 48.851562 22.925781 48.4375 C 23.574219 46.226562 24.824219 43.511719 25.800781 42.199219 C 25.960938 41.988281 26.335938 41.386719 26.625 40.875 C 27.074219 40.101562 28.875 37.476562 29.125 37.25 C 29.164062 37.210938 29.351562 36.960938 29.539062 36.675781 C 29.863281 36.1875 32.488281 33.460938 32.875 33.1875 C 33.5 32.761719 33.863281 32.539062 34.25 32.363281 C 34.488281 32.25 35.1875 31.800781 35.789062 31.363281 C 37.113281 30.398438 38.136719 29.75 38.335938 29.75 C 38.414062 29.75 39.363281 29.300781 40.425781 28.75 C 42.324219 27.773438 43.1875 27.414062 45.851562 26.425781 C 46.550781 26.175781 47.125 25.914062 47.125 25.863281 C 47.125 25.664062 46.664062 25.625 45.710938 25.75 C 44.75 25.886719 44.273438 25.835938 44.925781 25.675781 C 45.101562 25.636719 45.25 25.550781 45.25 25.5 C 45.25 25.375 45.824219 25.164062 47.8125 24.5625 C 48.636719 24.3125 49.511719 24.039062 49.75 23.976562 C 49.988281 23.898438 50.363281 23.761719 50.585938 23.664062 C 50.800781 23.574219 51.023438 23.5 51.101562 23.5 C 51.164062 23.5 51.636719 23.363281 52.136719 23.199219 C 52.648438 23.039062 53.460938 22.863281 53.9375 22.8125 C 54.425781 22.761719 55.351562 22.648438 56 22.5625 C 56.648438 22.476562 57.886719 22.335938 58.75 22.25 C 59.613281 22.175781 60.675781 22.050781 61.101562 21.988281 C 62.625 21.75 67.738281 21.863281 70.3125 22.1875 C 71.074219 22.289062 72.050781 22.398438 72.5 22.4375 C 74.335938 22.613281 78.863281 23.800781 80.875 24.636719 C 84.773438 26.273438 85.789062 26.773438 88.300781 28.273438 C 92.710938 30.914062 95.574219 33.039062 97.335938 34.960938 C 98.710938 36.488281 100.636719 38.800781 101.726562 40.238281 C 102.226562 40.898438 102.886719 41.773438 103.210938 42.1875 C 104 43.175781 104.988281 44.773438 105.386719 45.6875 C 105.726562 46.449219 106.949219 50.210938 107.5625 52.375 C 107.75 53.023438 107.988281 53.824219 108.085938 54.148438 C 108.1875 54.476562 108.289062 55.011719 108.324219 55.335938 C 108.460938 56.949219 108.523438 57.335938 108.6875 57.6875 C 108.925781 58.238281 109 61.050781 108.8125 62.875 C 108.710938 63.863281 108.523438 64.824219 108.3125 65.460938 C 107.988281 66.4375 107.976562 66.511719 108.175781 66.8125 C 108.289062 66.988281 108.4375 67.125 108.5 67.125 C 108.664062 67.125 108.664062 67.835938 108.5 67.9375 C 108.4375 67.976562 108.386719 68.136719 108.386719 68.289062 C 108.398438 68.574219 108.148438 69.925781 108.023438 70.25 C 107.988281 70.351562 107.949219 70.460938 107.9375 70.5 C 107.925781 70.539062 107.8125 70.789062 107.699219 71.050781 C 107.574219 71.324219 107.398438 71.898438 107.3125 72.324219 C 106.9375 74.125 105.523438 77.835938 104.738281 79.136719 C 104.539062 79.449219 104.375 79.75 104.375 79.800781 C 104.375 79.851562 104.273438 80.039062 104.136719 80.226562 C 104.011719 80.414062 103.460938 81.324219 102.9375 82.25 C 102.398438 83.175781 101.914062 83.960938 101.875 84 C 101.824219 84.039062 101.539062 84.414062 101.238281 84.835938 C 99.875 86.75 98.773438 88.085938 97.226562 89.699219 C 96.3125 90.648438 95.335938 91.710938 95.0625 92.0625 C 94.3125 93.023438 93.039062 94.3125 92.0625 95.101562 C 90.789062 96.125 90.726562 96.1875 90.636719 96.648438 C 90.414062 97.675781 91.136719 97.960938 92.1875 97.273438 C 93.710938 96.289062 99.5 90.898438 99.5 90.476562 C 99.5 90.386719 99.5625 90.398438 99.675781 90.488281 C 99.8125 90.613281 99.960938 90.585938 100.335938 90.386719 C 100.835938 90.125 100.960938 90 101.835938 88.851562 C 102.148438 88.449219 102.476562 88.125 102.574219 88.125 C 102.738281 88.125 103.136719 87.375 103.6875 86.039062 C 103.800781 85.773438 103.949219 85.5 104.039062 85.4375 C 104.125 85.363281 104.414062 84.863281 104.6875 84.3125 C 104.976562 83.761719 105.460938 82.800781 105.773438 82.1875 C 106.585938 80.636719 108.238281 77.164062 108.449219 76.574219 C 108.550781 76.3125 108.585938 76.050781 108.550781 75.988281 C 108.476562 75.863281 108.625 75.3125 109.574219 72.3125 C 109.9375 71.136719 110.261719 69.875 110.300781 69.5 C 110.324219 69.125 110.476562 68.289062 110.613281 67.636719 C 110.761719 67 110.914062 66.039062 110.949219 65.511719 C 111.011719 64.449219 111.011719 60.023438 110.9375 59.4375 C 110.914062 59.226562 110.824219 58.324219 110.75 57.4375 C 110.601562 55.636719 110.585938 55.511719 110.375 54.4375 C 110.238281 53.699219 110.175781 53.5 109.5 51.3125 C 109.3125 50.6875 109.039062 49.761719 108.886719 49.25 C 108.738281 48.738281 108.523438 48.136719 108.4375 47.9375 C 108.335938 47.726562 108.136719 47.25 108 46.875 C 107.851562 46.5 107.601562 45.9375 107.4375 45.625 C 106.8125 44.460938 105.988281 42.585938 105.886719 42.113281 C 105.699219 41.300781 104.289062 39.074219 102.351562 36.550781 C 98.875 32.023438 94.8125 28.648438 89 25.476562 C 86.6875 24.199219 79.261719 21.3125 77 20.800781 C 76.625 20.710938 76 20.5625 75.625 20.449219 C 74.800781 20.210938 72.699219 19.824219 70.3125 19.476562 C 68.148438 19.148438 62.574219 19.039062 61.25 19.300781 Z M 74.3125 21.375 L 74.5625 21.488281 L 74.3125 21.488281 C 74.175781 21.488281 73.949219 21.4375 73.8125 21.375 L 73.5625 21.261719 L 73.8125 21.261719 C 73.949219 21.261719 74.175781 21.3125 74.3125 21.375 Z M 81.523438 23.386719 C 83.363281 24.039062 89.324219 26.835938 91.011719 27.835938 C 94.289062 29.773438 98.414062 33.648438 101.0625 37.289062 C 101.414062 37.75 101.9375 38.488281 102.25 38.914062 C 103.023438 39.976562 103.273438 40.375 103.148438 40.375 C 103.085938 40.375 102.976562 40.25 102.914062 40.085938 C 102.835938 39.9375 102.398438 39.363281 101.9375 38.8125 C 101.488281 38.261719 100.761719 37.386719 100.335938 36.886719 C 98.539062 34.710938 96.664062 32.761719 95.375 31.699219 C 91.988281 28.914062 87.363281 26.261719 81.1875 23.5625 C 80.300781 23.164062 79.539062 22.824219 79.511719 22.800781 C 79.351562 22.648438 79.914062 22.8125 81.523438 23.386719 Z M 81.523438 23.386719 "/>
<path style=" stroke:none;fill-rule:nonzero;fill:rgb(100%,100%,100%);fill-opacity:1;" d="M 69 30.625 C 63.875 30.925781 59.75 32.101562 54.875 34.648438 C 51.550781 36.398438 48.835938 38.175781 46.25 40.300781 C 44.585938 41.675781 39.851562 46.5 39.449219 47.226562 C 39.386719 47.351562 39.199219 47.601562 39.039062 47.800781 C 38.585938 48.335938 37.976562 49.613281 38.023438 49.914062 C 38.050781 50.113281 38.148438 50.1875 38.375 50.1875 C 38.613281 50.1875 38.914062 49.886719 39.8125 48.738281 C 41.273438 46.835938 41.460938 46.625 44.351562 43.710938 C 46.4375 41.585938 48.050781 40.125 48.300781 40.125 C 48.335938 40.125 48.511719 39.988281 48.699219 39.8125 C 49.8125 38.773438 53.011719 36.800781 55.988281 35.3125 C 58.488281 34.074219 62.460938 32.585938 64.199219 32.261719 C 66.699219 31.789062 68.101562 31.6875 71.976562 31.710938 C 75.9375 31.738281 76.050781 31.726562 75.773438 31.289062 C 75.726562 31.199219 75.398438 31.074219 75.0625 31 C 74.386719 30.851562 71.210938 30.488281 70.8125 30.523438 C 70.675781 30.539062 69.863281 30.574219 69 30.625 Z M 69 30.625 "/>
<path style=" stroke:none;fill-rule:nonzero;fill:rgb(100%,100%,100%);fill-opacity:1;" d="M 78.101562 32.085938 C 78.1875 32.125 78.300781 32.113281 78.335938 32.074219 C 78.386719 32.039062 78.3125 32 78.175781 32.011719 C 78.039062 32.011719 78 32.050781 78.101562 32.085938 Z M 78.101562 32.085938 "/>
<path style=" stroke:none;fill-rule:nonzero;fill:rgb(100%,100%,100%);fill-opacity:1;" d="M 61 35.625 C 60.898438 35.6875 60.851562 35.761719 60.886719 35.800781 C 60.925781 35.835938 61.0625 35.789062 61.199219 35.6875 C 61.460938 35.488281 61.300781 35.4375 61 35.625 Z M 61 35.625 "/>
<path style=" stroke:none;fill-rule:nonzero;fill:rgb(100%,100%,100%);fill-opacity:1;" d="M 58.1875 36.324219 C 56.175781 36.8125 52.011719 39.386719 48.9375 42.050781 C 48.460938 42.476562 48.039062 42.835938 48 42.875 C 47.960938 42.914062 47.625 43.199219 47.25 43.523438 C 45.074219 45.363281 42.113281 48.699219 40.738281 50.875 C 39.789062 52.351562 38.460938 54.664062 37.988281 55.625 C 37.574219 56.488281 36.8125 58.824219 36.636719 59.800781 C 36.5 60.539062 36.425781 60.726562 36.3125 60.613281 C 36.289062 60.574219 36.226562 59.648438 36.175781 58.550781 C 36.101562 56.476562 35.976562 55.835938 35.648438 55.898438 C 35.3125 55.960938 35.136719 56.851562 35.050781 58.914062 C 34.863281 63.675781 35.699219 67.011719 38.601562 73 C 39.863281 75.613281 41.074219 77.386719 43.25 79.800781 C 44.914062 81.664062 49.175781 84.875 51.574219 86.101562 C 53.398438 87.023438 56.476562 88.0625 58.550781 88.449219 C 60.375 88.789062 61.351562 88.824219 61.6875 88.574219 C 61.914062 88.414062 61.914062 88.398438 61.675781 88.101562 C 61.550781 87.925781 61.363281 87.8125 61.261719 87.851562 C 61.164062 87.886719 61.113281 87.835938 61.148438 87.738281 C 61.273438 87.375 61.5 87.550781 62.449219 88.710938 C 63.511719 90.011719 65.136719 91.886719 65.601562 92.351562 C 65.75 92.5 66 92.625 66.164062 92.625 C 66.851562 92.625 66.949219 91.914062 66.351562 91.289062 L 65.949219 90.875 L 66.351562 90.351562 C 66.726562 89.824219 67.5625 88.226562 68.125 86.9375 C 68.449219 86.199219 68.523438 86.039062 69.273438 84.625 C 69.585938 84.039062 70.164062 82.9375 70.5625 82.1875 C 71.914062 79.574219 73.25 77.273438 73.25 77.511719 C 73.25 77.5625 73.074219 78 72.863281 78.5 C 72.460938 79.460938 72.414062 80.164062 72.761719 80.226562 C 72.898438 80.25 73.050781 80.0625 73.25 79.601562 C 73.574219 78.8125 73.699219 78.550781 74.363281 77.023438 C 74.648438 76.398438 74.875 75.8125 74.875 75.738281 C 74.875 75.675781 74.988281 75.375 75.113281 75.074219 C 75.25 74.789062 75.488281 74.238281 75.625 73.863281 C 76 72.925781 77.25 70.625 77.386719 70.625 C 77.613281 70.625 77.488281 71.039062 76.738281 72.886719 C 75.414062 76.101562 76.136719 75.289062 78.085938 71.363281 C 80.988281 65.523438 82.351562 62.375 82.625 60.863281 C 82.738281 60.226562 82.960938 59.75 83.863281 58.210938 C 84.199219 57.648438 84.710938 56.710938 85.023438 56.125 C 85.574219 55.0625 85.675781 54.898438 86.4375 53.6875 C 86.648438 53.335938 86.949219 52.773438 87.101562 52.4375 C 87.511719 51.449219 89.113281 48.351562 89.335938 48.101562 C 89.4375 47.988281 89.585938 47.898438 89.648438 47.914062 C 89.710938 47.925781 89.835938 47.824219 89.914062 47.6875 C 90 47.5625 90.335938 47.113281 90.675781 46.699219 C 91.238281 46 91.273438 45.925781 91.199219 45.398438 C 91.125 44.875 91.148438 44.824219 91.75 44.199219 C 92.085938 43.835938 92.335938 43.5 92.289062 43.460938 C 92.136719 43.3125 91.875 43.375 91.875 43.5625 C 91.875 43.800781 91.476562 44 91.164062 43.925781 C 90.988281 43.875 90.699219 44.011719 90.261719 44.351562 C 89.898438 44.613281 89.0625 45.085938 88.398438 45.375 C 86.726562 46.136719 79.773438 49.5625 77.875 50.574219 C 75.75 51.699219 74.914062 52.125 74.789062 52.125 C 74.726562 52.125 74.460938 52.273438 74.1875 52.460938 C 73.914062 52.648438 73.523438 52.898438 73.3125 53.011719 C 73.113281 53.113281 72.375 53.5 71.6875 53.875 C 71 54.238281 69.511719 55.039062 68.375 55.664062 C 65.175781 57.398438 64.960938 57.511719 62.5 58.8125 C 61.226562 59.476562 60.136719 60.0625 60.0625 60.113281 C 60 60.175781 59.550781 60.425781 59.0625 60.6875 C 56.773438 61.925781 55.613281 62.574219 54.75 63.0625 C 53.101562 64.023438 51.863281 64.5625 51.75 64.375 C 51.699219 64.289062 51.585938 64.261719 51.5 64.3125 C 51.386719 64.386719 51.386719 64.4375 51.511719 64.523438 C 51.664062 64.613281 51.648438 64.664062 51.5 64.761719 C 51.011719 65.074219 48.988281 66.1875 47.085938 67.175781 L 44.976562 68.273438 L 44.585938 67.898438 C 43.363281 66.710938 43.085938 66.5 42.875 66.5 C 42.710938 66.5 42.601562 66.613281 42.550781 66.8125 C 42.476562 67.113281 42.773438 67.648438 43.351562 68.238281 C 43.4375 68.335938 43.601562 68.550781 43.710938 68.710938 C 43.898438 69 43.886719 69.023438 43.488281 69.386719 C 43.261719 69.585938 42.988281 69.726562 42.898438 69.6875 C 42.488281 69.539062 42.199219 70.273438 42.488281 70.738281 C 42.625 70.949219 43.164062 70.835938 43.601562 70.488281 C 43.773438 70.363281 43.949219 70.25 44 70.25 C 44.0625 70.25 44.664062 70.886719 45.335938 71.648438 C 46.550781 73.050781 47.386719 73.949219 49.5625 76.25 C 51.1875 77.960938 52.351562 79.1875 53.261719 80.1875 C 53.699219 80.664062 54.25 81.261719 54.476562 81.5 C 54.710938 81.738281 55.300781 82.375 55.789062 82.898438 C 56.273438 83.4375 56.75 83.875 56.835938 83.875 C 57.085938 83.875 57.023438 83.386719 56.726562 82.960938 C 56.488281 82.625 56.5625 82.664062 57.113281 83.164062 C 57.488281 83.488281 58.148438 84.164062 58.613281 84.664062 C 59.0625 85.148438 59.851562 85.960938 60.363281 86.449219 C 60.925781 86.988281 61.25 87.386719 61.199219 87.476562 C 61.136719 87.585938 61.011719 87.550781 60.773438 87.386719 C 60.460938 87.148438 58.835938 86.761719 56.3125 86.3125 C 52.386719 85.601562 48.289062 83.101562 44.835938 79.324219 C 42.8125 77.113281 41.898438 75.789062 40.164062 72.5 C 39.613281 71.449219 38.398438 68.523438 38.199219 67.75 C 37.898438 66.5625 37.710938 64.210938 37.773438 62.148438 C 37.824219 60.449219 37.886719 60.050781 38.175781 59.1875 C 38.351562 58.636719 38.648438 58.011719 38.824219 57.8125 L 39.136719 57.4375 L 39.0625 57.9375 C 39.011719 58.210938 38.949219 58.585938 38.914062 58.773438 C 38.863281 59.050781 38.886719 59.125 39.050781 59.125 C 39.300781 59.125 39.488281 58.6875 39.636719 57.6875 C 39.800781 56.675781 39.925781 56.300781 40.648438 54.6875 C 41.6875 52.375 43.800781 48.699219 44.539062 47.9375 C 44.625 47.851562 44.9375 47.476562 45.238281 47.113281 C 46 46.1875 47.335938 44.875 48.75 43.6875 C 49.398438 43.136719 50.050781 42.585938 50.1875 42.460938 C 50.898438 41.8125 53.460938 39.976562 54.5 39.351562 C 56.449219 38.210938 58.761719 37.125 60 36.789062 C 60.699219 36.601562 61.210938 36.3125 61.039062 36.226562 C 60.789062 36.085938 58.875 36.148438 58.1875 36.324219 Z M 87.1875 48.4375 C 86.914062 48.675781 86.300781 49.074219 85.8125 49.324219 C 85.039062 49.738281 83.550781 50.6875 83.375 50.886719 C 83.335938 50.925781 82.414062 51.5625 81.3125 52.3125 C 77.1875 55.125 72.6875 58.300781 71.789062 59.039062 C 71.4375 59.324219 70.601562 60.011719 69.925781 60.5625 C 67.375 62.675781 66.949219 62.9375 65.625 63.25 C 65.25 63.335938 64.386719 63.601562 63.710938 63.835938 C 61.835938 64.488281 60.101562 64.851562 58.3125 64.988281 C 56.460938 65.125 55.664062 65.363281 55.550781 65.824219 C 55.511719 65.976562 55.511719 66.175781 55.5625 66.238281 C 55.664062 66.414062 56.351562 66.414062 56.824219 66.25 C 57.398438 66.050781 58.375 65.898438 58.375 66 C 58.375 66.050781 58.113281 66.136719 57.789062 66.1875 C 57.460938 66.238281 57.273438 66.3125 57.351562 66.363281 C 57.4375 66.414062 57.210938 66.550781 56.800781 66.675781 C 56.425781 66.800781 55.5 67.164062 54.773438 67.5 C 53.601562 68.023438 53.363281 68.085938 52.8125 68.039062 C 52.300781 67.988281 52.136719 68.023438 51.914062 68.25 C 51.414062 68.710938 51.523438 69.238281 52.289062 70.148438 C 52.664062 70.585938 53.601562 71.8125 54.375 72.875 C 55.648438 74.613281 56.175781 75.289062 57.523438 76.914062 C 57.738281 77.175781 58.125 77.699219 58.386719 78.074219 C 58.648438 78.4375 59.363281 79.414062 59.960938 80.210938 C 60.574219 81.023438 61.289062 82.023438 61.550781 82.4375 C 62.460938 83.835938 63.789062 85.5625 64.5 86.289062 C 65.199219 86.988281 65.226562 87.039062 65.300781 87.800781 C 65.335938 88.238281 65.414062 88.6875 65.449219 88.800781 C 65.601562 89.175781 65.335938 89 64.261719 87.949219 C 63.675781 87.375 62.9375 86.6875 62.636719 86.425781 C 62.324219 86.164062 61.875 85.710938 61.613281 85.4375 C 61.351562 85.164062 60.25 84.039062 59.164062 82.9375 C 58.074219 81.835938 56.738281 80.398438 56.199219 79.75 C 55.648438 79.101562 54.976562 78.3125 54.675781 78 C 54.386719 77.6875 53.800781 77.039062 53.363281 76.550781 C 52.324219 75.398438 50.585938 73.523438 49.664062 72.550781 C 49.261719 72.125 48.789062 71.625 48.613281 71.425781 C 48.4375 71.226562 47.761719 70.675781 47.136719 70.1875 C 46.5 69.710938 45.949219 69.273438 45.925781 69.226562 C 45.851562 69.113281 46.988281 68.4375 49 67.398438 C 49.925781 66.925781 51.113281 66.3125 51.625 66.039062 C 55.164062 64.136719 57.824219 62.699219 58.625 62.25 C 59.136719 61.960938 60.300781 61.324219 61.1875 60.851562 C 62.085938 60.363281 63.488281 59.601562 64.3125 59.148438 C 65.136719 58.699219 66.574219 57.9375 67.5 57.460938 C 68.425781 56.988281 69.5 56.386719 69.875 56.148438 C 70.789062 55.574219 73.648438 54 75.75 52.9375 C 76.675781 52.460938 77.664062 51.925781 77.9375 51.738281 C 78.210938 51.5625 78.636719 51.3125 78.875 51.199219 C 79.113281 51.085938 79.210938 51.0625 79.074219 51.148438 C 78.949219 51.238281 78.5625 51.523438 78.199219 51.773438 C 77.851562 52.023438 76.835938 52.6875 75.9375 53.238281 C 74.074219 54.375 73.625 54.761719 73.875 55.0625 C 74.113281 55.351562 74.261719 55.300781 75.324219 54.613281 C 75.875 54.25 76.550781 53.863281 76.851562 53.738281 C 77.386719 53.5 78.039062 53.136719 79.664062 52.136719 C 80.125 51.851562 81.585938 51.0625 82.914062 50.386719 C 84.238281 49.710938 85.8125 48.898438 86.414062 48.574219 C 87.011719 48.261719 87.550781 48 87.601562 48 C 87.648438 48 87.460938 48.199219 87.1875 48.4375 Z M 86.863281 50.398438 C 86.773438 50.5625 86.3125 51.335938 85.835938 52.125 C 85.351562 52.914062 84.539062 54.324219 84.039062 55.25 C 83.523438 56.175781 82.976562 57.136719 82.824219 57.375 C 82.125 58.449219 80.4375 61.738281 78.398438 66 C 78.085938 66.648438 77.664062 67.460938 77.460938 67.8125 C 77.0625 68.488281 74.949219 72.25 74.335938 73.375 C 73.914062 74.164062 72.863281 75.960938 71.210938 78.6875 C 70.585938 79.710938 69.851562 81.011719 69.5625 81.5625 C 69.273438 82.113281 68.675781 83.238281 68.238281 84.0625 C 67.800781 84.886719 67.300781 85.863281 67.136719 86.226562 C 66.960938 86.585938 66.789062 86.875 66.726562 86.875 C 66.550781 86.875 66.601562 86.574219 67.050781 85 C 67.164062 84.625 67.3125 83.886719 67.386719 83.375 C 67.460938 82.863281 67.648438 82.136719 67.8125 81.75 C 68.273438 80.648438 68.9375 79.113281 69.25 78.4375 C 69.414062 78.085938 69.675781 77.449219 69.835938 77 C 70 76.550781 70.210938 76.011719 70.300781 75.8125 C 70.5 75.375 70.914062 74.324219 71.613281 72.5 C 72.0625 71.3125 72.625 69.925781 73.0625 68.9375 C 73.164062 68.726562 73.574219 67.710938 73.988281 66.6875 C 74.386719 65.648438 74.925781 64.449219 75.175781 64 C 75.425781 63.550781 75.773438 62.898438 75.949219 62.5625 C 76.300781 61.863281 79.164062 57.960938 79.613281 57.5625 C 79.851562 57.363281 79.925781 57.351562 80.136719 57.488281 C 80.4375 57.664062 80.664062 57.539062 80.949219 56.988281 C 81.3125 56.273438 81.039062 55.988281 80.511719 56.550781 C 80.289062 56.789062 80.148438 56.835938 79.710938 56.789062 C 79.238281 56.726562 79.164062 56.761719 79.039062 57.011719 C 78.960938 57.175781 78.636719 57.636719 78.300781 58.050781 C 74.636719 62.460938 74.613281 62.511719 73.011719 66.324219 C 72.476562 67.625 71.835938 69.164062 71.585938 69.75 C 71.351562 70.335938 70.914062 71.425781 70.625 72.1875 C 69.9375 73.976562 69.851562 74.175781 69.050781 75.851562 C 68.675781 76.613281 68.261719 77.511719 68.136719 77.851562 C 68 78.175781 67.75 78.75 67.574219 79.125 C 67.199219 79.925781 67.226562 80.0625 67.238281 77.0625 C 67.261719 74.601562 67.300781 73.988281 67.625 70.9375 C 68.039062 67.050781 68.25 64.699219 68.25 64.1875 C 68.25 63.726562 68.3125 63.625 69.125 62.875 C 69.613281 62.4375 70.210938 61.9375 70.476562 61.773438 C 70.726562 61.601562 70.960938 61.425781 71 61.386719 C 71.125 61.226562 72.074219 60.523438 72.351562 60.386719 C 72.5625 60.273438 72.6875 60.273438 72.8125 60.375 C 72.898438 60.449219 73 60.460938 73.023438 60.398438 C 73.039062 60.335938 73.761719 59.8125 74.625 59.238281 C 75.488281 58.664062 76.613281 57.761719 77.136719 57.25 C 78.0625 56.335938 78.824219 55.773438 80.789062 54.550781 C 81.648438 54.011719 82.949219 53.085938 84.050781 52.238281 C 84.386719 51.976562 84.398438 51.960938 84.273438 52.199219 C 84.199219 52.351562 84.050781 52.523438 83.949219 52.625 C 83.675781 52.835938 82.300781 54.875 82.199219 55.199219 C 82.039062 55.710938 82.585938 55.460938 83.085938 54.800781 C 83.550781 54.199219 84.625 52.886719 84.988281 52.5 C 85.085938 52.398438 85.550781 51.824219 86.023438 51.226562 C 86.898438 50.125 87.136719 49.886719 86.863281 50.398438 Z M 79.875 50.6875 C 79.875 50.710938 79.75 50.8125 79.601562 50.886719 C 79.335938 51.023438 79.324219 51.023438 79.488281 50.835938 C 79.648438 50.636719 79.875 50.550781 79.875 50.6875 Z M 66.199219 73.960938 C 66.148438 79.113281 66.0625 83.476562 66 83.6875 C 65.949219 83.886719 65.863281 84.273438 65.8125 84.539062 L 65.738281 85.011719 L 65.039062 84.289062 C 64.335938 83.5625 63.988281 83.101562 61.148438 79.25 C 60.3125 78.113281 58.976562 76.324219 58.164062 75.273438 C 57.351562 74.226562 56.300781 72.8125 55.8125 72.136719 C 55.335938 71.460938 54.710938 70.613281 54.425781 70.238281 C 54.136719 69.863281 53.875 69.476562 53.835938 69.363281 C 53.710938 68.988281 56.25 67.9375 62.375 65.835938 C 63.851562 65.324219 65.238281 64.851562 65.4375 64.773438 C 65.648438 64.699219 65.914062 64.636719 66.050781 64.636719 C 66.273438 64.625 66.273438 64.886719 66.199219 73.960938 Z M 47.125 72.351562 C 48.113281 73.375 48.699219 74.039062 49.148438 74.648438 C 49.425781 75.011719 49.460938 75.113281 49.3125 75.175781 C 49.210938 75.210938 49.125 75.199219 49.125 75.148438 C 49.125 75.101562 48.9375 74.835938 48.699219 74.5625 C 48.460938 74.289062 48.300781 74.011719 48.335938 73.9375 C 48.386719 73.875 48.363281 73.851562 48.3125 73.914062 C 48.210938 74 47.625 73.539062 47.625 73.363281 C 47.625 73.324219 47.398438 73.039062 47.113281 72.738281 C 46.5 72.085938 46.074219 71.5 46.210938 71.5 C 46.261719 71.5 46.675781 71.875 47.125 72.351562 Z M 50.375 76.273438 C 50.375 76.324219 50.210938 76.199219 50 75.976562 C 49.800781 75.761719 49.625 75.5625 49.625 75.523438 C 49.625 75.488281 49.800781 75.613281 50 75.8125 C 50.210938 76.011719 50.375 76.210938 50.375 76.273438 Z M 52.5 78.4375 C 52.664062 78.613281 52.761719 78.75 52.726562 78.75 C 52.699219 78.75 52.539062 78.613281 52.375 78.4375 C 52.210938 78.261719 52.113281 78.125 52.148438 78.125 C 52.175781 78.125 52.335938 78.261719 52.5 78.4375 Z M 53.375 79.3125 C 53.375 79.414062 53.414062 79.5 53.476562 79.5 C 53.523438 79.5 53.675781 79.664062 53.800781 79.851562 C 54 80.125 53.960938 80.113281 53.574219 79.75 C 53.3125 79.511719 53.050781 79.210938 52.976562 79.085938 C 52.875 78.886719 52.886719 78.875 53.113281 79 C 53.261719 79.074219 53.375 79.210938 53.375 79.3125 Z M 54.425781 80.449219 C 54.488281 80.625 54.476562 80.636719 54.3125 80.5 C 54.101562 80.324219 54.074219 80.25 54.238281 80.25 C 54.300781 80.25 54.386719 80.335938 54.425781 80.449219 Z M 54.425781 80.449219 "/>
<path style=" stroke:none;fill-rule:nonzero;fill:rgb(100%,100%,100%);fill-opacity:1;" d="M 63.875 62.085938 C 61.636719 62.898438 59.210938 64 59.050781 64.273438 C 58.8125 64.636719 58.925781 64.886719 59.199219 64.636719 C 59.261719 64.585938 59.601562 64.460938 59.9375 64.386719 C 60.289062 64.300781 61.261719 63.949219 62.125 63.601562 C 64.238281 62.75 65.050781 62.5 65.574219 62.585938 C 65.835938 62.625 66.074219 62.601562 66.199219 62.488281 C 66.375 62.335938 66.375 62.3125 66.175781 62.164062 C 65.949219 62 64.261719 61.949219 63.875 62.085938 Z M 63.875 62.085938 "/>
<path style=" stroke:none;fill-rule:nonzero;fill:rgb(100%,100%,100%);fill-opacity:1;" d="M 73.25 62.085938 C 72.835938 62.199219 71.9375 63.773438 71.113281 65.851562 C 70.460938 67.460938 70.4375 67.550781 69.9375 69.625 C 69.335938 72.125 69.824219 71.75 70.75 69 C 71.738281 66.050781 72.664062 64 73.523438 62.789062 C 74 62.136719 73.898438 61.898438 73.25 62.085938 Z M 73.25 62.085938 "/>
<path style=" stroke:none;fill-rule:nonzero;fill:rgb(100%,100%,100%);fill-opacity:1;" d="M 33.75 36.585938 C 33.210938 36.789062 32.273438 37.914062 30.199219 40.875 C 27.851562 44.238281 25.585938 48.9375 24.773438 52.148438 C 24.113281 54.726562 24 55.226562 24 55.539062 C 24 55.699219 23.898438 56.0625 23.789062 56.324219 C 23.488281 57.023438 23.476562 59.199219 23.773438 59.648438 C 23.886719 59.824219 24.023438 60.324219 24.0625 60.761719 C 24.238281 62.425781 24.511719 62.898438 25.113281 62.585938 C 25.375 62.4375 25.386719 62.375 25.4375 59.988281 C 25.488281 58.023438 25.539062 57.460938 25.710938 57.113281 C 25.824219 56.886719 25.960938 56.25 26.011719 55.6875 C 26.113281 54.5 26.511719 52.574219 26.875 51.511719 C 27.886719 48.476562 29.75 44.824219 31.824219 41.789062 C 32.539062 40.738281 33.238281 39.585938 33.375 39.238281 C 33.523438 38.875 33.800781 38.363281 34 38.074219 C 34.5 37.375 34.613281 36.8125 34.273438 36.636719 C 34.125 36.5625 34 36.5 33.976562 36.511719 C 33.949219 36.511719 33.851562 36.550781 33.75 36.585938 Z M 33.75 36.585938 "/>
<path style=" stroke:none;fill-rule:nonzero;fill:rgb(100%,100%,100%);fill-opacity:1;" d="M 94.425781 39.074219 C 94.363281 39.324219 94.664062 40.039062 95.898438 42.476562 C 97.914062 46.460938 98.636719 48.699219 99.0625 52.335938 C 99.164062 53.175781 99.289062 53.960938 99.351562 54.085938 C 99.488281 54.363281 99.800781 55.613281 99.789062 55.875 C 99.773438 55.976562 99.851562 56.375 99.9375 56.75 C 100.039062 57.125 100.125 57.949219 100.164062 58.574219 C 100.210938 59.863281 100.511719 60.664062 100.988281 60.726562 C 101.625 60.824219 101.914062 59.824219 101.625 58.550781 C 101.5625 58.261719 101.476562 57.789062 101.449219 57.488281 C 100.925781 52.835938 100.664062 51.414062 99.625 47.914062 C 98.875 45.324219 97.925781 43.074219 96.6875 40.9375 C 95.601562 39.050781 94.625 38.25 94.425781 39.074219 Z M 94.425781 39.074219 "/>
<path style=" stroke:none;fill-rule:nonzero;fill:rgb(100%,100%,100%);fill-opacity:1;" d="M 57.601562 56.738281 C 56.023438 57.523438 52.25 61.5 52.25 62.375 C 52.25 62.550781 52.199219 62.75 52.136719 62.8125 C 52.085938 62.886719 51.988281 63.101562 51.949219 63.3125 L 51.851562 63.6875 L 52.164062 63.238281 C 52.324219 63 52.5 62.648438 52.550781 62.460938 C 52.625 62.164062 53.5625 61.136719 55.011719 59.800781 C 55.3125 59.511719 56.0625 58.761719 56.6875 58.136719 C 57.375 57.425781 57.9375 56.949219 58.148438 56.914062 C 58.363281 56.875 58.460938 56.789062 58.414062 56.675781 C 58.324219 56.449219 58.164062 56.460938 57.601562 56.738281 Z M 57.601562 56.738281 "/>
<path style=" stroke:none;fill-rule:nonzero;fill:rgb(100%,100%,100%);fill-opacity:1;" d="M 34.386719 70.425781 C 34.136719 70.726562 34.351562 71.414062 35.324219 73.351562 C 36.363281 75.425781 36.773438 76.0625 38.613281 78.324219 C 39.789062 79.773438 42.863281 82.988281 44 83.9375 C 44.238281 84.148438 44.75 84.574219 45.125 84.886719 C 46.960938 86.4375 49.675781 87.976562 51.023438 88.25 C 51.898438 88.425781 52.273438 88.335938 52.226562 87.960938 C 52.199219 87.75 51.789062 87.488281 50.4375 86.8125 C 49.476562 86.335938 48.375 85.738281 48 85.488281 C 47.273438 85.011719 45.136719 83.289062 44.324219 82.511719 C 43.738281 81.949219 41.835938 79.875 41.25 79.136719 C 41.011719 78.824219 40.75 78.523438 40.6875 78.449219 C 39.386719 77.050781 38.273438 75.5 37.136719 73.539062 C 36.773438 72.898438 36.523438 72.601562 36.3125 72.550781 C 36.074219 72.488281 35.875 72.226562 35.488281 71.449219 C 34.875 70.238281 34.6875 70.0625 34.386719 70.425781 Z M 34.386719 70.425781 "/>
<path style=" stroke:none;fill-rule:nonzero;fill:rgb(100%,100%,100%);fill-opacity:1;" d="M 89.125 99.125 C 89.023438 99.1875 88.675781 99.226562 88.351562 99.226562 C 87.925781 99.210938 87.574219 99.3125 87.039062 99.585938 C 84.011719 101.164062 83.601562 101.414062 83.476562 101.6875 C 83.398438 101.851562 83.375 102.074219 83.425781 102.199219 C 83.5625 102.550781 84.300781 102.324219 85.738281 101.488281 C 88.375 99.9375 88.324219 99.960938 89.023438 100.050781 C 89.523438 100.125 89.699219 100.085938 89.886719 99.925781 C 90.125 99.710938 90.199219 99.3125 90.039062 99.210938 C 89.773438 99.074219 89.289062 99.023438 89.125 99.125 Z M 89.125 99.125 "/>
</g>
</svg>
